<svg xmlns="http://www.w3.org/2000/svg" xmlns:xlink="http://www.w3.org/1999/xlink" viewBox="0 0 887.662 487.799"><defs><style>.cls-1{fill:url(#linear-gradient);}.cls-2{fill:url(#linear-gradient-2);}.cls-3{fill:url(#linear-gradient-3);}.cls-4{fill:none;clip-rule:evenodd;}.cls-5{clip-path:url(#clip-path);}.cls-6{fill:url(#linear-gradient-4);}.cls-7{mask:url(#mask);}.cls-8{fill:#66e5fb;}.cls-10,.cls-14,.cls-8{fill-rule:evenodd;}.cls-9{mask:url(#mask-2);}.cls-10{fill:#02238e;}.cls-11{clip-path:url(#clip-path-2);}.cls-12{fill:url(#linear-gradient-5);}.cls-13{mask:url(#mask-3);}.cls-14{fill:#ed0b46;}</style><linearGradient id="linear-gradient" x1="709.336" y1="448.478" x2="248.9" y2="688.285" gradientTransform="translate(372.089 -270.465)" gradientUnits="userSpaceOnUse"><stop offset="0" stop-color="#fff"/><stop offset="1"/></linearGradient><linearGradient id="linear-gradient-2" x1="-156.765" y1="1001.918" x2="274.2" y2="307.903" gradientTransform="translate(176.89 -271.827)" xlink:href="#linear-gradient"/><linearGradient id="linear-gradient-3" x1="-167.027" y1="756.92" x2="110.055" y2="442.761" gradientTransform="translate(176.89 -274.349)" xlink:href="#linear-gradient"/><clipPath id="clip-path"><path class="cls-4" d="M201.484,475l141.16,3.342c64.754,2.683,315.368,8.586,396.183,9.377.594.006,1.2.006,1.8,0a135.368,135.368,0,0,0,21.486-1.434l.105-.012v-.007c111.9-16.772,167.081-171.614,88.713-251.784-23.194-23.726-59.2-44.59-112.105-60.035C708.748-26.054,463.2-52.08,375.362,87.907c0,0-147.117-67.5-200.771,96.924C71.727,193.613,0,337.53,85.18,428.262c12.746,13.577,29.008,25.967,49.2,36.532,24.972,13.059,39.25,9.546,67.1,10.2"/></clipPath><linearGradient id="linear-gradient-4" x1="358.261" y1="366.151" x2="697.966" y2="-13.824" gradientUnits="userSpaceOnUse"><stop offset="0" stop-color="#0463ef"/><stop offset="0.207" stop-color="#0567ed"/><stop offset="0.401" stop-color="#0972e8"/><stop offset="0.589" stop-color="#0f85e0"/><stop offset="0.775" stop-color="#18a0d4"/><stop offset="0.956" stop-color="#24c2c4"/><stop offset="1" stop-color="#27cbc0"/></linearGradient><mask id="mask" x="687.372" y="174.447" width="200.29" height="313.282" maskUnits="userSpaceOnUse"><rect class="cls-1" x="687.372" y="174.447" width="200.29" height="313.282"/></mask><mask id="mask-2" x="47.452" y="73.514" width="506.337" height="409.749" maskUnits="userSpaceOnUse"><rect class="cls-2" x="47.452" y="73.514" width="506.337" height="409.749"/></mask><clipPath id="clip-path-2"><path class="cls-4" d="M201.484,475l141.16,3.342c26.595,1.1,84.548,2.747,149.206,4.358C647.8,324.144,342.827,263.737,375.362,87.907c0,0-147.117-67.5-200.771,96.924C71.727,193.613,0,337.53,85.18,428.262c12.746,13.577,29.008,25.967,49.2,36.532,24.972,13.059,39.25,9.546,67.1,10.2"/></clipPath><linearGradient id="linear-gradient-5" x1="152.352" y1="421.043" x2="474.936" y2="102.328" gradientUnits="userSpaceOnUse"><stop offset="0" stop-color="#ff1457"/><stop offset="1" stop-color="#fef163"/></linearGradient><mask id="mask-3" x="47.452" y="74.187" width="291.688" height="400.811" maskUnits="userSpaceOnUse"><rect class="cls-3" x="47.452" y="74.187" width="291.688" height="400.811"/></mask></defs><title>Asset 2</title><g id="Layer_2" data-name="Layer 2"><g id="Layer_1-2" data-name="Layer 1"><g class="cls-5"><rect class="cls-6" x="47.452" width="840.21" height="487.799"/></g><g class="cls-7"><path class="cls-8" d="M738.827,174.447c40.1,120.266,48.489,231.45-51.455,312.513,53.577,1.144,23.624.485,51.455.756.594.006,1.2.006,1.8,0a135.368,135.368,0,0,0,21.486-1.434l.105-.012v-.007c111.9-16.772,167.081-171.614,88.713-251.784C827.738,210.756,791.737,189.892,738.827,174.447Z"/></g><g class="cls-9"><path class="cls-10" d="M512.681,302.83c-19.237-23.239-41.1-44.362-61.355-66.721-20.59-22.726-41.262-48.267-52.466-77.118a121.693,121.693,0,0,1-6.509-67.939l2.45-13.231-9.377-4.307c-3.538,4.593-6.912,9.375-10.062,14.393,0,0-147.117-67.5-200.771,96.924C71.727,193.613,0,337.53,85.18,428.262c12.746,13.577,29.008,25.967,49.2,36.532,24.972,13.059,39.25,9.546,67.1,10.2l141.16,3.342c29.724,1.233,98.613,3.141,172.26,4.924,25.643-29.3,44.4-64.718,37.412-105.082C547.382,349.667,530.808,324.725,512.681,302.83Z"/></g><g class="cls-11"><rect class="cls-12" y="20.407" width="647.802" height="462.29"/></g><g class="cls-13"><path class="cls-14" d="M174.591,184.831C71.727,193.613,0,337.53,85.18,428.262c12.746,13.577,29.008,25.967,49.2,36.532,24.972,13.059,39.25,9.546,67.1,10.2C436.615,463.44,162.962,166.024,339.14,77.185,292.011,68.394,211.359,72.156,174.591,184.831Z"/></g></g></g></svg>